<mxfile host="app.diagrams.net" agent="Mozilla/5.0 (Macintosh; Intel Mac OS X 10_15_7) AppleWebKit/605.1.15 (KHTML, like Gecko) Version/17.6 Safari/605.1.15" version="24.7.7">
  <diagram name="Page-1" id="QvPxACT82_SmeQ_VazSf">
    <mxGraphModel dx="1242" dy="827" grid="1" gridSize="10" guides="1" tooltips="1" connect="1" arrows="1" fold="1" page="1" pageScale="1" pageWidth="827" pageHeight="1169" math="0" shadow="0">
      <root>
        <mxCell id="0" />
        <mxCell id="1" parent="0" />
        <mxCell id="GQ6hAcBVPGQAEcgz6POl-14" style="edgeStyle=orthogonalEdgeStyle;rounded=0;orthogonalLoop=1;jettySize=auto;html=1;exitX=0.5;exitY=1;exitDx=0;exitDy=0;entryX=0.5;entryY=0;entryDx=0;entryDy=0;" edge="1" parent="1" source="GQ6hAcBVPGQAEcgz6POl-1" target="GQ6hAcBVPGQAEcgz6POl-9">
          <mxGeometry relative="1" as="geometry" />
        </mxCell>
        <mxCell id="GQ6hAcBVPGQAEcgz6POl-1" value="start" style="ellipse;whiteSpace=wrap;html=1;aspect=fixed;" vertex="1" parent="1">
          <mxGeometry x="360" y="40" width="40" height="40" as="geometry" />
        </mxCell>
        <mxCell id="GQ6hAcBVPGQAEcgz6POl-16" style="edgeStyle=orthogonalEdgeStyle;rounded=0;orthogonalLoop=1;jettySize=auto;html=1;exitX=0.5;exitY=1;exitDx=0;exitDy=0;entryX=0.5;entryY=0;entryDx=0;entryDy=0;" edge="1" parent="1" source="GQ6hAcBVPGQAEcgz6POl-3" target="GQ6hAcBVPGQAEcgz6POl-10">
          <mxGeometry relative="1" as="geometry" />
        </mxCell>
        <mxCell id="GQ6hAcBVPGQAEcgz6POl-3" value="&lt;font style=&quot;font-size: 14px;&quot;&gt;unsign char *y&lt;/font&gt;" style="rounded=0;whiteSpace=wrap;html=1;" vertex="1" parent="1">
          <mxGeometry x="320" y="240" width="120" height="50" as="geometry" />
        </mxCell>
        <mxCell id="GQ6hAcBVPGQAEcgz6POl-15" style="edgeStyle=orthogonalEdgeStyle;rounded=0;orthogonalLoop=1;jettySize=auto;html=1;exitX=0.5;exitY=1;exitDx=0;exitDy=0;entryX=0.5;entryY=0;entryDx=0;entryDy=0;" edge="1" parent="1" source="GQ6hAcBVPGQAEcgz6POl-9" target="GQ6hAcBVPGQAEcgz6POl-3">
          <mxGeometry relative="1" as="geometry" />
        </mxCell>
        <mxCell id="GQ6hAcBVPGQAEcgz6POl-9" value="void *b, int c, size_t len" style="shape=parallelogram;html=1;strokeWidth=2;perimeter=parallelogramPerimeter;whiteSpace=wrap;rounded=1;arcSize=12;size=0.23;" vertex="1" parent="1">
          <mxGeometry x="280" y="120" width="200" height="60" as="geometry" />
        </mxCell>
        <mxCell id="GQ6hAcBVPGQAEcgz6POl-10" value="&lt;span style=&quot;font-size: 14px;&quot;&gt;y = b&lt;/span&gt;" style="rounded=0;whiteSpace=wrap;html=1;" vertex="1" parent="1">
          <mxGeometry x="320" y="330" width="120" height="50" as="geometry" />
        </mxCell>
        <mxCell id="GQ6hAcBVPGQAEcgz6POl-18" value="true" style="edgeStyle=orthogonalEdgeStyle;rounded=0;orthogonalLoop=1;jettySize=auto;html=1;exitX=0.5;exitY=1;exitDx=0;exitDy=0;exitPerimeter=0;entryX=0.5;entryY=0;entryDx=0;entryDy=0;" edge="1" parent="1" source="GQ6hAcBVPGQAEcgz6POl-11" target="GQ6hAcBVPGQAEcgz6POl-12">
          <mxGeometry relative="1" as="geometry">
            <Array as="points">
              <mxPoint x="380" y="470" />
              <mxPoint x="570" y="470" />
            </Array>
          </mxGeometry>
        </mxCell>
        <mxCell id="GQ6hAcBVPGQAEcgz6POl-22" style="edgeStyle=orthogonalEdgeStyle;rounded=0;orthogonalLoop=1;jettySize=auto;html=1;exitX=0.5;exitY=1;exitDx=0;exitDy=0;exitPerimeter=0;" edge="1" parent="1" source="GQ6hAcBVPGQAEcgz6POl-11">
          <mxGeometry relative="1" as="geometry">
            <mxPoint x="380" y="610" as="targetPoint" />
          </mxGeometry>
        </mxCell>
        <mxCell id="GQ6hAcBVPGQAEcgz6POl-23" value="false" style="edgeLabel;html=1;align=center;verticalAlign=middle;resizable=0;points=[];" vertex="1" connectable="0" parent="GQ6hAcBVPGQAEcgz6POl-22">
          <mxGeometry x="0.0167" y="2" relative="1" as="geometry">
            <mxPoint as="offset" />
          </mxGeometry>
        </mxCell>
        <mxCell id="GQ6hAcBVPGQAEcgz6POl-11" value="len-- &amp;gt; 0" style="strokeWidth=2;html=1;shape=mxgraph.flowchart.decision;whiteSpace=wrap;" vertex="1" parent="1">
          <mxGeometry x="330" y="420" width="100" height="100" as="geometry" />
        </mxCell>
        <mxCell id="GQ6hAcBVPGQAEcgz6POl-26" style="edgeStyle=orthogonalEdgeStyle;rounded=0;orthogonalLoop=1;jettySize=auto;html=1;exitX=0.5;exitY=0;exitDx=0;exitDy=0;" edge="1" parent="1" source="GQ6hAcBVPGQAEcgz6POl-12">
          <mxGeometry relative="1" as="geometry">
            <mxPoint x="380" y="400" as="targetPoint" />
            <Array as="points">
              <mxPoint x="570" y="400" />
            </Array>
          </mxGeometry>
        </mxCell>
        <mxCell id="GQ6hAcBVPGQAEcgz6POl-12" value="&lt;span style=&quot;font-size: 14px;&quot;&gt;*y = c;&lt;/span&gt;&lt;div&gt;&lt;span style=&quot;font-size: 14px;&quot;&gt;y++;&lt;/span&gt;&lt;/div&gt;" style="rounded=0;whiteSpace=wrap;html=1;" vertex="1" parent="1">
          <mxGeometry x="510" y="445" width="120" height="50" as="geometry" />
        </mxCell>
        <mxCell id="GQ6hAcBVPGQAEcgz6POl-30" style="edgeStyle=orthogonalEdgeStyle;rounded=0;orthogonalLoop=1;jettySize=auto;html=1;exitX=0.5;exitY=1;exitDx=0;exitDy=0;entryX=0.5;entryY=0;entryDx=0;entryDy=0;" edge="1" parent="1" source="GQ6hAcBVPGQAEcgz6POl-13" target="GQ6hAcBVPGQAEcgz6POl-28">
          <mxGeometry relative="1" as="geometry" />
        </mxCell>
        <mxCell id="GQ6hAcBVPGQAEcgz6POl-13" value="return b;" style="rounded=1;whiteSpace=wrap;html=1;absoluteArcSize=1;arcSize=14;strokeWidth=2;" vertex="1" parent="1">
          <mxGeometry x="340" y="610" width="90" height="70" as="geometry" />
        </mxCell>
        <mxCell id="GQ6hAcBVPGQAEcgz6POl-25" style="edgeStyle=orthogonalEdgeStyle;rounded=0;orthogonalLoop=1;jettySize=auto;html=1;exitX=0.5;exitY=1;exitDx=0;exitDy=0;entryX=0.5;entryY=0;entryDx=0;entryDy=0;entryPerimeter=0;" edge="1" parent="1" source="GQ6hAcBVPGQAEcgz6POl-10" target="GQ6hAcBVPGQAEcgz6POl-11">
          <mxGeometry relative="1" as="geometry" />
        </mxCell>
        <mxCell id="GQ6hAcBVPGQAEcgz6POl-28" value="stop" style="ellipse;whiteSpace=wrap;html=1;aspect=fixed;" vertex="1" parent="1">
          <mxGeometry x="360" y="710" width="40" height="40" as="geometry" />
        </mxCell>
      </root>
    </mxGraphModel>
  </diagram>
</mxfile>
